<?xml version="1.0" encoding="UTF-8"?>
<svg width="600" height="337.5" version="1.1" viewBox="0 0 600 337.5" xmlns="http://www.w3.org/2000/svg" xmlns:xlink="http://www.w3.org/1999/xlink">
 <defs>
  <style>.cls-1{fill:#666;}.cls-2{fill:#fb6e0d;}.cls-3{fill:#b1b1b1;}</style>
  <linearGradient id="linearGradient1134" x1="-175.1" x2="424.9" y1="310.88" y2="-26.624" gradientTransform="translate(175.1 26.624)" gradientUnits="userSpaceOnUse">
   <stop stop-color="#fff" offset="0"/>
   <stop stop-color="#c7c7c7" offset="1"/>
  </linearGradient>
 </defs>
 <rect width="600" height="337.5" fill="url(#linearGradient1134)" stroke-linecap="round" stroke-linejoin="round" stroke-width="8" style="paint-order:stroke fill markers"/>
 <g transform="matrix(-.70716 .18336 .18336 .70716 527.35 45.554)" stroke-width="1.3688" data-name="Layer 2">
  <g stroke-width="1.3688" data-name="Layer 1">
   <g stroke-width="1.3688" data-name="HOME 1">
    <path class="cls-1" d="m323.66 160.69 51.56-24.05-24-51.56-51.56 24zm30.87-31.61-23.31 10.92-10.85-23.29 23.26-10.85z" data-name="Path 218"/>
    <path class="cls-2" d="m26.05 27.58 27.58 49.76 49.75-27.58-27.58-49.76zm33.68 28.59-12.47-22.49 22.47-12.46 12.45 22.46z" data-name="Path 219"/>
    <g data-name="Group 99">
     <g data-name="Group 94">
      <path class="cls-2" d="m20.72 163.6-1.9-1.08c0.36-0.64 0.74-1.28 1.13-1.92l1.86 1.16c-0.38 0.61-0.74 1.24-1.09 1.84z" stroke-width="1.3688" data-name="Path 207"/>
     </g>
     <g data-name="Group 95">
      <path class="cls-2" d="m192.84 200.33c-0.88-1.15-1.76-2.3-2.66-3.44l1.73-1.34c0.89 1.14 1.79 2.29 2.67 3.45zm-5.35-6.85c-0.9-1.13-1.82-2.26-2.73-3.37l1.69-1.39c0.91 1.12 1.84 2.26 2.75 3.4zm-5.49-6.71c-0.93-1.11-1.88-2.22-2.81-3.3l1.65-1.43c0.94 1.08 1.9 2.2 2.84 3.32zm-5.68-6.56c-1-1.07-2-2.15-2.92-3.2l1.6-1.49c1 1.06 2 2.15 2.94 3.24zm-5.9-6.35c-1-1-2-2.09-3-3.1l1.55-1.55c1 1 2.05 2.08 3.06 3.13zm-6.13-6.13c-1.05-1-2.11-2-3.16-3l1.48-1.61c1.06 1 2.14 2 3.2 3zm-6.39-5.84c-1.08-0.95-2.2-1.89-3.3-2.8l1.4-1.69c1.12 0.93 2.24 1.88 3.34 2.84zm-133.71-3.68-1.77-1.29c0.87-1.18 1.79-2.36 2.74-3.49l1.67 1.41c-0.92 1.09-1.8 2.22-2.64 3.37zm127-1.84c-1.14-0.89-2.29-1.77-3.44-2.62l1.3-1.76c1.16 0.86 2.33 1.76 3.48 2.66zm-121.49-4.7-1.57-1.52c1-1.05 2.09-2.08 3.19-3.07l1.47 1.62c-1.07 1-2.11 2-3.09 3zm114.57-0.45c-1.18-0.82-2.39-1.63-3.59-2.41l1.19-1.83c1.22 0.79 2.45 1.62 3.65 2.45zm-7.25-4.7c-1.23-0.74-2.49-1.47-3.73-2.17l1.06-1.91c1.27 0.71 2.55 1.45 3.8 2.21zm-101-0.57-1.35-1.72c1.14-0.9 2.34-1.79 3.56-2.63l1.24 1.8c-1.18 0.82-2.34 1.67-3.45 2.55zm93.42-3.65c-1.27-0.66-2.57-1.3-3.87-1.91l0.94-2c1.31 0.62 2.64 1.28 3.94 2zm-86.36-1.22-1.08-1.88c1.25-0.75 2.54-1.48 3.85-2.17l1 1.94c-1.27 0.66-2.52 1.37-3.73 2.11zm78.56-2.46c-1.31-0.57-2.66-1.12-4-1.63l0.79-2c1.36 0.52 2.73 1.08 4.07 1.66zm-71-1.54-0.9-2c1.33-0.6 2.7-1.18 4.07-1.71l0.79 2c-1.34 0.52-2.67 1.08-4 1.66zm62.92-1.57c-1.36-0.46-2.74-0.9-4.1-1.31l0.62-2.1c1.39 0.42 2.8 0.87 4.19 1.34zm-54.85-1.51-0.71-2.1c1.39-0.45 2.81-0.87 4.23-1.25l0.56 2.12c-1.38 0.37-2.77 0.77-4.12 1.21zm46.66-0.92c-1.39-0.35-2.81-0.68-4.2-1l0.44-2.15c1.43 0.3 2.87 0.63 4.3 1zm-38.37-1.29-0.45-2.15c1.44-0.3 2.9-0.55 4.35-0.77l0.32 2.16c-1.41 0.21-2.83 0.47-4.23 0.76zm29.92-0.47c-1.42-0.23-2.85-0.42-4.27-0.58l0.25-2.18c1.44 0.17 2.91 0.37 4.36 0.6zm-21.43-0.81-0.2-2.17c1.46-0.14 2.94-0.24 4.4-0.29l0.09 2.18c-1.43 0.06-2.88 0.15-4.3 0.28zm12.88-0.15c-1.44-0.09-2.88-0.15-4.3-0.17v-2.19c1.45 0 2.94 0.08 4.41 0.17z" stroke-width="1.3688" data-name="Path 208"/>
     </g>
     <g data-name="Group 97">
      <path class="cls-2" d="m199.86 198.61-2.15-0.41c0.28-1.44 0.58-2.9 0.9-4.34l2.14 0.47c-0.31 1.43-0.61 2.87-0.89 4.28zm1.89-8.53-2.13-0.53c0.36-1.42 0.73-2.86 1.13-4.28l2.11 0.59c-0.39 1.39-0.76 2.82-1.11 4.22zm2.32-8.42-2.07-0.66c0.43-1.4 0.88-2.81 1.34-4.21l2.08 0.69c-0.45 1.38-0.9 2.78-1.32 4.16zm2.76-8.29-2.05-0.74c0.5-1.38 1-2.78 1.55-4.15l2 0.8c-0.52 1.35-1 2.72-1.53 4.09zm3.18-8.14-2-0.85c0.57-1.35 1.17-2.72 1.77-4.06l2 0.9c-0.6 1.33-1.18 2.67-1.74 4zm3.58-8-2-0.95c0.63-1.31 1.29-2.64 2-4l1.95 1c-0.66 1.31-1.31 2.62-1.93 3.92zm4-7.79-1.92-1c0.7-1.28 1.42-2.58 2.15-3.86l1.9 1.09c-0.72 1.26-1.43 2.54-2.12 3.82zm4.35-7.58-1.94-1.1c0.76-1.26 1.55-2.52 2.34-3.75l1.84 1.17c-0.77 1.22-1.55 2.47-2.3 3.71zm4.71-7.36-1.81-1.22c0.82-1.22 1.67-2.44 2.52-3.64l1.78 1.27c-0.83 1.18-1.67 2.39-2.48 3.59zm5.07-7.12-1.76-1.31c0.88-1.18 1.79-2.36 2.69-3.52l1.73 1.36c-0.9 1.14-1.79 2.3-2.66 3.46zm5.4-6.88-1.69-1.39c0.93-1.13 1.9-2.27 2.86-3.38l1.65 1.43c-0.95 1.1-1.9 2.22-2.82 3.34zm5.72-6.6-1.61-1.48c1-1.08 2-2.17 3-3.23l1.58 1.51c-1 1-2 2.13-3 3.2zm6.05-6.33-1.55-1.54c1-1 2.1-2.08 3.17-3.09l1.51 1.59c-1.08 1.03-2.14 2.05-3.16 3.07zm6.33-6-1.49-1.57c1.09-1 2.21-2 3.32-2.92l1.42 1.66c-1.09 0.94-2.2 1.91-3.27 2.89zm6.63-5.7-1.38-1.7c1.13-0.93 2.3-1.85 3.46-2.75l1.34 1.72c-1.15 0.89-2.29 1.81-3.42 2.73zm6.9-5.37-1.3-1.76c1.19-0.87 2.39-1.74 3.6-2.58l1.25 1.8c-1.18 0.82-2.38 1.68-3.55 2.55zm7.16-5-1.2-1.83c1.22-0.8 2.47-1.61 3.72-2.39l1.16 1.85c-1.23 0.78-2.47 1.57-3.67 2.37zm7.41-4.63-1.14-1.87c1.26-0.74 2.56-1.48 3.84-2.2l1.06 1.92c-1.26 0.7-2.54 1.43-3.79 2.17zm7.64-4.24-1-1.94c1.3-0.68 2.63-1.35 4-2l1 2c-1.31 0.64-2.62 1.3-3.9 2z" stroke-width="1.3688" data-name="Path 210"/>
     </g>
     <g data-name="Group 98">
      <path class="cls-2" d="m298.79 72.82-0.91-2 2-0.9 0.88 2z" stroke-width="1.3688" data-name="Path 211"/>
     </g>
    </g>
    <g data-name="Group 100">
     <path class="cls-2" d="m303.65 82.32-2.09-0.66 4-12.66-12.66-4 0.66-2.08 14.75 4.67z" stroke-width="1.3688" data-name="Path 212"/>
    </g>
    <g data-name="Group 101">
     <path class="cls-2" d="m367.73 201.3-2.18-0.21 1.31-13.22-13.21-1.31 0.21-2.18 15.4 1.53z" stroke-width="1.3688" data-name="Path 213"/>
    </g>
    <g data-name="Group 102">
     <path class="cls-2" d="m8.27 269.72-8.27-13.07 13.07-8.28 1.17 1.85-11.24 7.1 7.1 11.22z" stroke-width="1.3688" data-name="Path 214"/>
    </g>
    <g data-name="Group 103">
     <path class="cls-2" d="m27.24 261.18-0.06-2.18c1.43 0 2.87-0.12 4.29-0.26l0.21 2.18c-1.47 0.13-2.97 0.22-4.44 0.26zm-4.45 0c-1.49-0.06-3-0.18-4.44-0.36l0.26-2.17c1.4 0.17 2.84 0.28 4.28 0.35zm13.31-0.81-0.36-2.15c1.41-0.24 2.83-0.52 4.22-0.85l0.5 2.13c-1.46 0.3-2.91 0.59-4.36 0.83zm-22.1-0.27c-1.46-0.28-2.92-0.62-4.34-1l0.57-2.12c1.37 0.38 2.78 0.7 4.18 1zm30.8-1.8-0.64-2.09c1.36-0.42 2.73-0.89 4.06-1.4l0.78 2c-1.37 0.53-2.79 1-4.2 1.45zm8.3-3.18-0.92-2c1.3-0.6 2.59-1.26 3.84-1.94l0.98 1.94c-1.28 0.71-2.62 1.38-4 2zm7.8-4.28-1.23-1.84c1.2-0.77 2.39-1.6 3.53-2.45l1.31 1.76c-1.17 0.88-2.41 1.73-3.66 2.53zm7.1-5.33-1.43-1.65c1.08-0.94 2.14-1.93 3.13-2.93l1.56 1.54c-1 1-2.13 2.06-3.25 3zm6.28-6.33-1.66-1.42c0.92-1.08 1.82-2.21 2.67-3.36l1.71 1.3c-0.87 1.19-1.8 2.36-2.75 3.48zm5.29-7.13-1.84-1.19c0.77-1.19 1.51-2.43 2.22-3.69l1.91 1.07c-0.73 1.3-1.5 2.58-2.29 3.81zm4.33-7.75-2-1c0.62-1.28 1.21-2.6 1.77-3.94l2 0.84c-0.58 1.38-1.19 2.74-1.82 4.05zm3.41-8.18-2.06-0.74c0.48-1.33 0.94-2.72 1.36-4.1l2.09 0.63c-0.43 1.43-0.9 2.84-1.39 4.21zm2.6-8.46-2.13-0.55c0.36-1.37 0.7-2.79 1-4.22l2.14 0.47c-0.32 1.46-0.67 2.9-1 4.3zm1.86-8.66-2.15-0.4c0.25-1.38 0.49-2.82 0.71-4.28l2.17 0.33c-0.23 1.48-0.48 2.94-0.73 4.35zm1.32-8.72-2.17-0.28c0.18-1.4 0.34-2.85 0.48-4.32l2.18 0.21c-0.15 1.5-0.32 3-0.49 4.38zm0.87-8.76-2.18-0.17c0.11-1.39 0.21-2.86 0.3-4.35l2.19 0.13c-0.1 1.51-0.2 3-0.31 4.39zm0.53-8.77-2.19-0.1c0.06-1.39 0.12-2.85 0.16-4.36l2.19 0.07c-0.05 1.52-0.11 3-0.17 4.39zm0.27-8.77h-2.19c0-1.21 0.05-2.41 0.07-3.61v-0.74h2.18v0.75c0 1.21 0 2.42-0.07 3.63zm0.13-8.76h-2.18c0-1.46 0-2.92 0.07-4.38h2.19c0 1.46-0.06 2.92-0.08 4.37zm0.17-8.74-2.19-0.06c0-1.46 0.08-2.92 0.13-4.38l2.19 0.07c-0.06 1.46-0.1 2.92-0.14 4.37zm195.64-4.64c-0.86 0-1.73 0-2.59-0.06l0.1-2.19c1.44 0.07 2.9 0.08 4.29 0l0.07 2.19h-1.88zm6.33-0.37-0.26-2.17c1.38-0.16 2.76-0.38 4.1-0.66h0.13l0.43 2.14h-0.12c-1.41 0.28-2.85 0.51-4.29 0.68zm-13.36-0.07c-1.47-0.19-2.95-0.44-4.4-0.74l0.44-2.14c1.4 0.29 2.82 0.53 4.23 0.71zm22.1-1.72-0.62-2.1c1.36-0.4 2.72-0.87 4.05-1.39l0.79 2c-1.39 0.54-2.81 1-4.22 1.45zm-30.83-0.09c-1.43-0.41-2.85-0.89-4.24-1.41l0.78-2.05c1.33 0.5 2.7 1 4.07 1.36zm-179.58-1.81-2.18-0.1c0.07-1.49 0.15-3 0.24-4.38l2.18 0.14c-0.09 1.4-0.17 2.86-0.24 4.35zm171.24-1.3c-1.35-0.63-2.68-1.32-4-2l1.08-1.9c1.24 0.7 2.52 1.37 3.81 2zm-7.75-4.41c-1.24-0.84-2.44-1.74-3.59-2.66l1.38-1.7c1.1 0.89 2.26 1.75 3.44 2.55zm-162.93-3-2.18-0.18c0.12-1.5 0.26-3 0.41-4.38l2.17 0.23c-0.14 1.39-0.28 2.85-0.4 4.33zm156-2.64-0.19-0.19c-1-1-2-2-2.9-3l1.63-1.46c0.91 1 1.85 2 2.79 2.92l0.18 0.17zm-155.08-6-2.17-0.29c0.19-1.47 0.4-2.94 0.63-4.35l2.16 0.34c-0.23 1.4-0.44 2.84-0.63 4.3zm149.16-0.61c-0.87-1.12-1.76-2.33-2.62-3.57l1.8-1.25c0.84 1.21 1.7 2.38 2.55 3.48zm-5-7.27c-0.75-1.19-1.5-2.42-2.29-3.77l1.9-1.1c0.77 1.33 1.5 2.54 2.24 3.71zm-142.7-0.67-2.15-0.42c0.28-1.45 0.6-2.91 0.93-4.31l2.13 0.5c-0.33 1.37-0.64 2.8-0.92 4.23zm138.18-6.88c-0.63-1.13-1.29-2.36-2.1-3.86l1.93-1c0.8 1.49 1.46 2.71 2.08 3.83zm-136.27-1.49-2.1-0.59c0.4-1.44 0.83-2.86 1.28-4.23l2.08 0.68c-0.45 1.34-0.87 2.73-1.26 4.13zm132.12-6.23-2.07-3.85 1.93-1 2.07 3.87zm-129.41-2-2-0.78c0.53-1.39 1.1-2.77 1.7-4.1l2 0.9c-0.59 1.28-1.15 2.62-1.67 4zm125.24-5.69c-0.76-1.35-1.48-2.58-2.19-3.75l1.88-1.13c0.71 1.19 1.44 2.44 2.21 3.81zm-121.72-2.21-1.94-1c0.68-1.31 1.41-2.62 2.16-3.88l1.88 1.12c-0.74 1.22-1.44 2.49-2.1 3.77zm117.23-5.25c-0.81-1.24-1.64-2.43-2.45-3.55l1.78-1.29c0.83 1.15 1.68 2.37 2.51 3.65zm-112.82-2.13-1.8-1.23q1.24-1.83 2.63-3.59l1.72 1.36c-0.89 1.1-1.75 2.27-2.55 3.46zm107.73-4.81c-0.9-1.1-1.86-2.19-2.84-3.23l1.59-1.5c1 1.08 2 2.2 2.94 3.34zm-102.42-2-1.62-1.46c1-1.1 2-2.18 3.08-3.21l1.52 1.57c-1.02 1.03-2.02 2.07-2.98 3.13zm96.52-4.31c-1-1-2.13-1.92-3.24-2.83l1.38-1.7c1.15 0.94 2.28 1.92 3.35 2.92zm-90.36-1.7-1.43-1.66c1.12-1 2.28-1.9 3.46-2.79l1.32 1.74c-1.14 0.87-2.27 1.78-3.35 2.71zm83.68-3.72c-1.16-0.83-2.37-1.63-3.58-2.39l1.16-1.86c1.25 0.79 2.5 1.62 3.69 2.47zm-76.81-1.46-1.19-1.81c1.23-0.82 2.5-1.6 3.77-2.34l1.1 1.89c-1.24 0.72-2.48 1.48-3.67 2.27zm69.53-3.11c-1.26-0.68-2.55-1.33-3.85-1.93l0.92-2c1.34 0.62 2.67 1.29 4 2zm-62.08-1.2-1-2c1.32-0.66 2.68-1.29 4-1.86l0.86 2c-1.32 0.56-2.64 1.17-3.92 1.81zm54.26-2.42c-1.33-0.52-2.7-1-4.06-1.44l0.67-2.09c1.4 0.45 2.81 1 4.19 1.49zm-46.33-0.93-0.73-2.06c1.4-0.49 2.82-0.94 4.24-1.34l0.59 2.1c-1.37 0.39-2.75 0.83-4.1 1.3zm38.13-1.7c-1.39-0.35-2.8-0.66-4.2-0.93l0.4-2.15c1.45 0.27 2.91 0.6 4.34 1zm-29.85-0.64-0.46-2.14c1.45-0.31 2.93-0.57 4.38-0.79l0.32 2.17c-1.41 0.2-2.84 0.46-4.24 0.76zm21.39-1c-1.42-0.18-2.86-0.3-4.28-0.38l0.12-2.19c1.47 0.08 3 0.22 4.43 0.4zm-12.88-0.29-0.17-2.18c0.68-0.06 1.38-0.1 2.06-0.13s1.59-0.06 2.39-0.07v2.19c-0.77 0-1.55 0-2.31 0.06s-1.33 0.07-2 0.13z" stroke-width="1.3688" data-name="Path 215"/>
    </g>
    <g data-name="Group 104">
     <path class="cls-2" d="m246 233.34h-2v-2.19q2.17 0 4.35 0v2.19zm-6.44-0.12c-1.46-0.05-2.94-0.12-4.4-0.21l0.14-2.18c1.44 0.08 2.9 0.15 4.34 0.21zm13.2 0-0.08-2.18c1.45-0.06 2.9-0.13 4.35-0.22l0.13 2.19c-1.45 0.08-2.93 0.16-4.39 0.21zm-22-0.52c-1.45-0.12-2.93-0.26-4.38-0.42l0.24-2.18c1.44 0.16 2.89 0.3 4.33 0.42zm30.78 0-0.19-2.18c1.44-0.13 2.9-0.27 4.33-0.42l0.24 2.17c-1.45 0.16-2.93 0.3-4.38 0.42zm-39.53-1c-1.46-0.2-2.93-0.42-4.36-0.66l0.36-2.16c1.41 0.24 2.86 0.46 4.3 0.66zm48.28 0-0.29-2.16c1.43-0.19 2.88-0.4 4.31-0.63l0.34 2.16c-1.45 0.23-2.91 0.44-4.36 0.63zm8.7-1.36-0.39-2.15c1.42-0.26 2.86-0.54 4.27-0.83l0.44 2.14c-1.43 0.29-2.88 0.57-4.32 0.84zm-65.67-0.09c-1.46-0.29-2.91-0.61-4.31-0.94l0.5-2.13c1.38 0.33 2.8 0.64 4.24 0.92zm74.29-1.68-0.49-2.13c1.41-0.33 2.83-0.67 4.23-1l0.54 2.12c-1.42 0.36-2.86 0.71-4.28 1zm-82.88-0.34c-1.44-0.4-2.87-0.82-4.24-1.25l0.66-2.09c1.35 0.43 2.74 0.84 4.15 1.23zm91.41-1.83-0.59-2.11c1.39-0.39 2.8-0.8 4.18-1.22l0.64 2.09c-1.4 0.43-2.82 0.84-4.23 1.23zm-99.84-0.84c-1.4-0.5-2.79-1-4.13-1.6l0.84-2c1.31 0.54 2.67 1.07 4 1.57zm108.26-1.73-0.69-2.07c1.37-0.46 2.76-0.93 4.12-1.42l0.73 2.06c-1.37 0.49-2.77 1-4.16 1.43zm-120.39-3.67 1-1.92a1.09 1.09 0 0 1-1 1.92zm128.68 0.71-0.78-2c1.35-0.52 2.71-1.06 4-1.6l0.83 2c-1.34 0.55-2.72 1.1-4.09 1.62zm-132.51-2.87c-1.27-0.77-2.52-1.59-3.71-2.43l1.25-1.79c1.16 0.81 2.37 1.6 3.6 2.36zm140.66-0.45-0.87-2c1.32-0.58 2.65-1.18 4-1.79l0.92 2c-1.32 0.62-2.67 1.23-4 1.82zm8-3.71-1-2c1.29-0.64 2.6-1.3 3.88-2l1 1.94c-1.29 0.68-2.61 1.35-3.92 2zm-155.93-1a4.17 4.17 0 0 1-1.92-4.5c1.06 1 2.16 1.89 3.28 2.79zm163.72-3.14-1.06-1.91c1.27-0.71 2.54-1.44 3.77-2.16l1.11 1.88c-1.26 0.79-2.54 1.49-3.83 2.24zm-170.3-2.83c-1-1.06-2-2.18-3-3.31l1.67-1.41c0.92 1.1 1.89 2.17 2.87 3.2zm177.89-1.64-1.15-1.86c1.22-0.75 2.46-1.54 3.67-2.33l1.2 1.83c-1.24 0.85-2.49 1.65-3.73 2.41zm7.37-4.82-1.24-1.8c1.19-0.82 2.38-1.67 3.55-2.51l1.28 1.77q-1.77 1.29-3.59 2.55zm-191-0.36c-0.87-1.18-1.71-2.42-2.5-3.67l1.84-1.17c0.77 1.21 1.59 2.4 2.43 3.55zm198.09-4.81-1.33-1.74c1.15-0.88 2.3-1.78 3.42-2.69l1.37 1.7c-1.13 0.92-2.3 1.84-3.46 2.73zm-202.84-2.63c-0.71-1.28-1.39-2.61-2-4l2-0.94c0.62 1.3 1.28 2.59 2 3.83zm-3.81-8c-0.55-1.35-1.07-2.75-1.55-4.15l2.07-0.71c0.47 1.36 1 2.72 1.51 4zm-2.87-8.38c-0.4-1.4-0.77-2.85-1.1-4.29l2.13-0.49c0.32 1.41 0.69 2.81 1.07 4.18zm-2-8.63c-0.25-1.44-0.48-2.9-0.67-4.38l2.17-0.28c0.18 1.43 0.41 2.87 0.66 4.27zm-1.15-8.77c-0.13-1.46-0.22-2.94-0.28-4.42l2.18-0.09c0.06 1.44 0.16 2.9 0.28 4.32zm1.83-8.83h-2.19c0-1.45 0-2.93 0.09-4.4l2.19 0.09c-0.06 1.44-0.09 2.89-0.09 4.31zm0.35-8.69-2.18-0.17c0.12-1.46 0.27-2.94 0.45-4.4l2.17 0.26c-0.17 1.43-0.32 2.88-0.44 4.31zm1-8.6-2.16-0.35c0.23-1.45 0.5-2.91 0.79-4.34l2.14 0.43c-0.29 1.4-0.55 2.84-0.77 4.26zm18.41-8c-1.47 0-3-0.08-4.44-0.18l0.16-2.18c1.43 0.1 2.88 0.16 4.3 0.17zm4.44-0.1-0.11-2.18c1.43-0.08 2.87-0.2 4.28-0.37l0.26 2.17c-1.46 0.17-2.95 0.3-4.43 0.38zm-21.14-0.43-2.13-0.52c0.12-0.49 0.24-1 0.37-1.46-1.13-0.29-2.26-0.61-3.38-1l0.64-2.1q1.65 0.51 3.3 0.93c0.06-0.23 0.13-0.46 0.2-0.7l2.1 0.6c-0.13 0.46-0.26 0.92-0.38 1.37-0.25 0.94-0.49 1.89-0.72 2.83zm7.85-0.1c-1.45-0.2-2.93-0.43-4.38-0.7l0.4-2.15c1.42 0.27 2.85 0.5 4.26 0.68zm22.13-0.53-0.42-2.15h0.08c1.4-0.27 2.77-0.6 4.07-1l0.62 2.1c-1.37 0.4-2.81 0.75-4.28 1zm8.6-2.57-0.88-2a26.79 26.79 0 0 0 3.71-2l1.18 1.84a29 29 0 0 1-4 2.13zm-47.92-1.13c-1.37-0.49-2.76-1-4.13-1.6l0.84-2c1.33 0.56 2.69 1.08 4 1.56zm-8.18-3.39c-1.32-0.62-2.65-1.29-4-2l1-1.93c1.28 0.67 2.58 1.32 3.87 1.93zm63.71-0.48-1.55-1.55a14.59 14.59 0 0 0 2.47-3.22l1.91 1.07a16.74 16.74 0 0 1-2.83 3.7zm-43.81-0.13-2.08-0.69c0.49-1.45 1-2.86 1.53-4.17l2 0.81c-0.51 1.28-1 2.64-1.48 4.05zm-27.72-3.51c-1.27-0.74-2.54-1.52-3.77-2.31l1.18-1.84c1.21 0.78 2.45 1.54 3.69 2.26zm76-4.46-2.14-0.43a12.74 12.74 0 0 0 0.23-2.39 12.32 12.32 0 0 0-0.1-1.61l2.17-0.27a14.71 14.71 0 0 1 0.12 1.88 14 14 0 0 1-0.28 2.82zm-45.06 0-2-1c0.67-1.37 1.39-2.7 2.14-3.93l1.87 1.13c-0.71 1.18-1.4 2.44-2 3.76zm-38.38-0.32c-1.2-0.84-2.4-1.72-3.57-2.62l1.33-1.73c1.15 0.87 2.32 1.74 3.5 2.56zm-7-5.37c-1.13-0.94-2.25-1.92-3.34-2.9l1.47-1.63c1.06 1 2.16 1.92 3.27 2.84zm49.82-1.6-1.74-1.32a37.8 37.8 0 0 1 2.79-3.27l0.15-0.15 1.57 1.52-0.13 0.14a36.85 36.85 0 0 0-2.62 3.09zm37.57-1.07a17.29 17.29 0 0 0-2-3.57l1.76-1.3a19.77 19.77 0 0 1 2.29 4zm-93.95-3.26-0.77-0.76c-0.78-0.78-1.56-1.58-2.33-2.38l1.59-1.51c0.75 0.79 1.52 1.58 2.28 2.34l0.76 0.75zm62.28-1.67-1.34-1.72a31.73 31.73 0 0 1 3.77-2.52l1.08 1.9a28.63 28.63 0 0 0-3.51 2.35zm26.85-1.59a17.32 17.32 0 0 0-3.4-2.29l1-2a19.48 19.48 0 0 1 3.85 2.58zm-19.53-2.52-0.77-2a26.41 26.41 0 0 1 4.38-1.25l0.42 2.14a24.43 24.43 0 0 0-4 1.16zm-75.67-0.55c-1-1.08-1.93-2.21-2.87-3.34l1.68-1.4c0.93 1.11 1.88 2.22 2.83 3.29zm87.94-0.58a19.51 19.51 0 0 0-4.11-0.43v-2.2a22 22 0 0 1 4.58 0.49zm-93.59-6.2c-0.89-1.14-1.79-2.32-2.67-3.5l1.76-1.3c0.86 1.17 1.75 2.33 2.63 3.45zm-5.24-7.08c-0.83-1.18-1.66-2.4-2.48-3.64l1.83-1.21c0.8 1.22 1.63 2.43 2.44 3.6zm-4.87-7.33c-0.77-1.23-1.54-2.49-2.3-3.75l1.88-1.12c0.75 1.24 1.52 2.49 2.28 3.7zm-4.52-7.54c-0.71-1.24-1.44-2.53-2.15-3.84l1.92-1c0.7 1.29 1.42 2.57 2.13 3.8zm-4.23-7.7c-0.67-1.26-1.35-2.57-2-3.9l1.95-1c0.67 1.31 1.34 2.62 2 3.87z" stroke-width="1.3688" data-name="Path 216"/>
    </g>
    <path class="cls-3" d="m170 205.24 8.9 56.19 56.19-8.9-8.9-56.19zm21.88 38.39-4-25.4 25.38-4 4 25.35z" data-name="Path 217"/>
   </g>
  </g>
 </g>
</svg>
