<?xml version="1.0" encoding="utf-8"?>
<!DOCTYPE svg PUBLIC "-//W3C//DTD SVG 20010904//EN" "http://www.w3.org/TR/2001/REC-SVG-20010904/DTD/svg10.dtd">
<svg version="1.0" xmlns="http://www.w3.org/2000/svg" width="801px" height="801px" viewBox="0 0 801 801" preserveAspectRatio="xMidYMid meet">
 <g fill="#000000">
  <path d="M192 736.2 c-15.9 -5.8 -27.3 -17.4 -32.6 -33.2 -1.8 -5.3 -1.9 -15.4 -1.9 -301 0 -286.1 0.1 -295.7 1.9 -301 2.9 -8.6 7 -15.2 13.3 -21.1 7.3 -6.9 11.3 -9.3 20.4 -12.4 l7.3 -2.5 134 0 c111.7 0 135.2 0.3 140.8 1.4 15.4 3.3 28 13.1 34.8 27 2.3 4.8 4.4 10.8 5 14.6 0.6 3.9 1 32.4 1 70.3 l0 63.7 -10 0 -10 0 0 -37 0 -37 -159.5 0 -159.5 0 0 224 0 224 169.5 0 169.5 0 0 36.8 c0 20.2 -0.5 39.6 -1 43.2 -3.2 20.2 -19.5 37.2 -39.8 41.6 -5.6 1.1 -29 1.4 -141.2 1.3 l-134.5 0 -7.5 -2.7z m151.1 -21.2 c21.3 -4 36.6 -24.9 33 -45.2 -3.9 -22.2 -24.6 -37.6 -45.5 -33.9 -17.5 3.1 -30.4 16 -33.7 33.6 -2.9 15.9 6.5 34.2 21.5 41.5 9.2 4.6 15.9 5.6 24.7 4z m0.5 -606.4 c2.6 -2.6 3.4 -4.2 3.4 -7.1 0 -2.9 -0.8 -4.5 -3.4 -7.1 -4.7 -4.7 -9.5 -4.7 -14.2 0 -4.7 4.7 -4.7 9.5 0 14.2 4.7 4.7 9.5 4.7 14.2 0z"/>
  <path d="M589.7 475 c-15.8 -2.7 -29.6 -16.6 -32.7 -33 -1.3 -6.8 -1.3 -18.2 0 -25.1 2.4 -12.6 11 -23.6 22.7 -29.2 l6.8 -3.2 64.8 -0.3 64.7 -0.3 0 46.1 0 46 -60.7 -0.1 c-33.5 -0.1 -63 -0.5 -65.6 -0.9z m15.6 -26.1 c13.3 -3.7 18.6 -20.4 10 -31.7 -7.3 -9.7 -24.3 -9.7 -31.6 0 -8.4 11 -3.8 26.8 8.9 31.3 4.7 1.7 7.7 1.8 12.7 0.4z"/>
  <path d="M593.5 435.4 c-1.5 -1.6 -2.5 -3.9 -2.5 -5.6 0 -3.8 4.8 -8.8 8.5 -8.8 3.7 0 8.5 5 8.5 8.8 0 4.3 -4 8.2 -8.5 8.2 -2.6 0 -4.3 -0.7 -6 -2.6z"/>
  <path d="M267.4 240.9 c-11.6 -4.4 -19.4 -15.7 -19.4 -27.9 0 -9.7 2.3 -15.5 8.9 -22.1 9.6 -9.6 0.2 -8.9 121.8 -8.9 l106.3 0 0 6 0 6 -104.3 0 c-110.7 0 -108.4 -0.1 -107.5 4.6 0.3 1.9 2.4 1.9 106.1 2.2 l105.7 0.2 0 4 0 4 -105.4 0 c-105.4 0 -105.5 0 -106.1 2 -1.7 5.2 -6.3 5 106.6 5 l104.9 0 0 3.5 0 3.5 -104.3 0 c-110.7 0 -108.4 -0.1 -107.5 4.6 0.3 1.9 2.4 1.9 106.1 2.2 l105.7 0.2 0 6.5 0 6.5 -106.2 -0.1 c-103 0 -106.5 -0.1 -111.4 -2z"/>
 </g>
 <g fill="#080808">
 </g>
 <g fill="#101010">
  <path d="M263.3 604.6 c-8.8 -2.8 -17.6 -10.7 -21.6 -19.4 l-2.2 -4.7 -0.1 -182 c-0.1 -101.7 0.2 -179.5 0.7 -176.3 1.5 10.3 8.1 20.5 16.5 25.4 9.8 5.7 -3.1 5.4 214.1 5.5 192.7 0 200.6 0.1 206.4 1.8 11.6 3.7 20.3 12.8 23.4 24.8 1.2 4.6 1.5 14 1.5 49.5 l0 43.8 -55.5 0 c-36.1 0 -57.2 0.4 -60.7 1.1 -18.4 3.8 -34.5 19.2 -39.3 37.4 -2.1 8.1 -2 29.3 0.1 36.6 5.3 18.1 20.4 32.9 37.4 36.8 2.8 0.7 25.7 1.1 61.3 1.1 l56.7 0 0 44.4 c0 41.9 -0.1 44.8 -2 51 -2.9 9.3 -8.7 16.1 -17.5 20.6 l-6.8 3.5 -204.1 0.2 c-165.8 0.1 -204.9 -0.1 -208.3 -1.1z"/>
 </g>
 <g fill="#191919">
 </g>
 <g fill="#212121">
 </g>
 <g fill="#292929">
 </g>
 <g fill="#313131">
 </g>
 <g fill="#3a3a3a">
 </g>
 <g fill="#424242">
 </g>
 <g fill="#4a4a4a">
 </g>
 <g fill="#525252">
 </g>
 <g fill="#5a5a5a">
 </g>
 <g fill="#636363">
 </g>
 <g fill="#6b6b6b">
 </g>
 <g fill="#737373">
 </g>
 <g fill="#7b7b7b">
 </g>
 <g fill="#848484">
 </g>
 <g fill="#8c8c8c">
 </g>
 <g fill="#949494">
 </g>
 <g fill="#9c9c9c">
 </g>
 <g fill="#a5a5a5">
 </g>
 <g fill="#adadad">
 </g>
 <g fill="#b5b5b5">
 </g>
 <g fill="#bdbdbd">
 </g>
 <g fill="#c5c5c5">
 </g>
 <g fill="#cecece">
 </g>
 <g fill="#d6d6d6">
 </g>
 <g fill="#dedede">
 </g>
 <g fill="#e6e6e6">
 </g>
 <g fill="#efefef">
 </g>
 <g fill="#f7f7f7">
 </g>
 <g fill="#ffffff">
 </g>
</svg>